<svg width="169" height="149" viewBox="0 0 169 149" fill="none" xmlns="http://www.w3.org/2000/svg">
<path d="M44.8315 57.3797H49.1072V71.8546C49.1072 73.101 49.217 73.984 49.4325 74.4994C49.6522 75.0149 50.0113 75.4289 50.5141 75.7373C51.0169 76.0458 51.6211 76.2021 52.3309 76.2021C53.0829 76.2021 53.7293 76.0289 54.2701 75.6866C54.8109 75.3402 55.187 74.905 55.3982 74.3727C55.6052 73.8403 55.7109 72.8263 55.7109 71.3265V57.384H59.9866V70.7265C59.9866 72.9784 59.8598 74.5417 59.6063 75.412C59.3528 76.2866 58.8669 77.1274 58.1529 77.9386C57.4389 78.7498 56.615 79.3497 55.6813 79.7427C54.7476 80.1356 53.6617 80.3299 52.4238 80.3299C50.8014 80.3299 49.3903 79.9581 48.1861 79.2103C46.982 78.4625 46.1243 77.533 45.6089 76.4091C45.0934 75.2853 44.8315 73.3925 44.8315 70.7265V57.384V57.3797Z" fill="white"/>
<path d="M85.5943 61.0344L82.5945 64.0003C80.6975 61.9934 78.4836 60.9879 75.9571 60.9879C73.7516 60.9879 71.9095 61.7188 70.4223 63.1806C68.9351 64.6425 68.1915 66.417 68.1915 68.5042C68.1915 70.5913 68.9647 72.4968 70.5068 73.9967C72.0489 75.4965 73.9544 76.2486 76.219 76.2486C77.6893 76.2486 78.9315 75.9402 79.9412 75.3191C80.951 74.7022 81.7664 73.7305 82.3875 72.4123H75.9064V68.4112H87.166L87.1956 69.3534C87.1956 71.3095 86.6886 73.1686 85.6746 74.9219C84.6606 76.6753 83.3466 78.0146 81.7326 78.9399C80.1187 79.8652 78.2259 80.3257 76.0585 80.3257C73.7347 80.3257 71.6645 79.8187 69.8435 78.8131C68.0225 77.8034 66.5818 76.3669 65.5213 74.4994C64.4608 72.632 63.9327 70.6209 63.9327 68.4577C63.9327 65.496 64.9129 62.9187 66.8691 60.7302C69.1928 58.1233 72.2137 56.822 75.9359 56.822C77.8837 56.822 79.7046 57.1812 81.3989 57.9036C82.8311 58.512 84.2296 59.5556 85.5985 61.0386L85.5943 61.0344ZM69.2224 51.4014H72.5855C72.8475 51.8196 73.2193 52.1281 73.6882 52.3351C74.1614 52.5421 74.736 52.6477 75.4163 52.6477C76.0965 52.6477 76.7302 52.5252 77.2879 52.2844C77.6513 52.1238 77.9724 51.8281 78.247 51.4014H81.6101C81.4158 52.69 80.7989 53.7251 79.7596 54.5067C78.7202 55.2883 77.2668 55.6771 75.3994 55.6771C74.1403 55.6771 73.0883 55.5038 72.2433 55.1531C71.3983 54.8025 70.7138 54.3039 70.1984 53.6533C69.6829 53.0026 69.3576 52.2548 69.2266 51.4014H69.2224Z" fill="white"/>
<path d="M90.9516 57.3797H95.2273V71.8546C95.2273 73.101 95.3371 73.984 95.5526 74.4994C95.7723 75.0149 96.1314 75.4289 96.6342 75.7373C97.137 76.0458 97.7411 76.2021 98.4509 76.2021C99.203 76.2021 99.8494 76.0289 100.39 75.6866C100.931 75.3402 101.307 74.905 101.518 74.3727C101.725 73.8403 101.831 72.8263 101.831 71.3265V57.384H106.107V70.7265C106.107 72.9784 105.98 74.5417 105.726 75.412C105.473 76.2866 104.987 77.1274 104.273 77.9386C103.559 78.7498 102.735 79.3497 101.801 79.7427C100.868 80.1356 99.7818 80.3299 98.5439 80.3299C96.9215 80.3299 95.5103 79.9581 94.3062 79.2103C93.1021 78.4625 92.2444 77.533 91.729 76.4091C91.2135 75.2853 90.9516 73.3925 90.9516 70.7265V57.384V57.3797Z" fill="white"/>
<path d="M111.341 57.3797H115.854C118.325 57.3797 120.087 57.5994 121.135 58.0431C122.183 58.4825 123.028 59.2176 123.666 60.2401C124.304 61.2667 124.625 62.4751 124.625 63.8778C124.625 65.3481 124.274 66.5776 123.569 67.5662C122.863 68.5549 121.803 69.3027 120.383 69.8097L125.685 79.7596H121.029L115.997 70.2787H115.609V79.7596H111.35V57.3755L111.341 57.3797ZM115.6 66.1297H116.935C118.292 66.1297 119.225 65.9523 119.732 65.5974C120.244 65.2425 120.497 64.651 120.497 63.8271C120.497 63.337 120.37 62.9145 120.117 62.5511C119.863 62.1878 119.525 61.9301 119.099 61.7737C118.676 61.6174 117.894 61.5371 116.762 61.5371H115.596V66.1339L115.6 66.1297Z" fill="white"/>
<path d="M45.5244 88.7292L42.3683 91.5135C41.2614 89.9714 40.1333 89.2024 38.9841 89.2024C38.4264 89.2024 37.9701 89.3503 37.611 89.6503C37.2518 89.9503 37.0786 90.2883 37.0786 90.6601C37.0786 91.0319 37.2054 91.391 37.4589 91.7248C37.8053 92.1726 38.8447 93.1317 40.5854 94.602C42.212 95.9624 43.1964 96.8201 43.5429 97.175C44.4048 98.0454 45.0174 98.8819 45.3807 99.6762C45.7399 100.47 45.9215 101.341 45.9215 102.287C45.9215 104.125 45.2878 105.642 44.0161 106.838C42.7486 108.033 41.0924 108.633 39.0517 108.633C37.4589 108.633 36.0688 108.245 34.8858 107.463C33.7028 106.681 32.6888 105.456 31.8481 103.779L35.4309 101.62C36.5082 103.597 37.7462 104.586 39.1489 104.586C39.8798 104.586 40.4966 104.374 40.991 103.948C41.4895 103.521 41.7388 103.031 41.7388 102.473C41.7388 101.966 41.5487 101.459 41.1769 100.952C40.8008 100.445 39.9727 99.6677 38.6926 98.6242C36.2547 96.6342 34.6788 95.1005 33.969 94.0231C33.2592 92.9415 32.9001 91.8642 32.9001 90.791C32.9001 89.2405 33.4916 87.9096 34.6746 86.7984C35.8576 85.6872 37.3152 85.1338 39.0559 85.1338C40.1713 85.1338 41.236 85.3915 42.2458 85.9111C43.2556 86.4266 44.3498 87.373 45.5286 88.7419L45.5244 88.7292ZM38.0673 107.826H40.6403L40.4586 108.528C41.1388 108.68 41.6754 108.975 42.0641 109.415C42.4528 109.854 42.6514 110.336 42.6514 110.864C42.6514 111.684 42.3049 112.385 41.6163 112.972C40.9276 113.56 39.9685 113.851 38.739 113.851C37.7462 113.851 36.6181 113.619 35.359 113.15L35.9083 111.185C36.6392 111.417 37.3532 111.536 38.0546 111.536C38.57 111.536 38.9587 111.439 39.2122 111.24C39.4657 111.041 39.5925 110.779 39.5925 110.454C39.5925 110.192 39.4953 109.981 39.3052 109.829C39.1108 109.677 38.8066 109.601 38.3926 109.601L37.5391 109.63L38.0715 107.818L38.0673 107.826Z" fill="white"/>
<path d="M56.8094 85.6872H61.1315L69.7421 108.071H65.3143L63.5651 103.462H54.4307L52.6097 108.071H48.1819L56.8136 85.6872H56.8094ZM58.9979 91.6191L55.9939 99.3044H61.9807L58.9937 91.6191H58.9979Z" fill="white"/>
<path d="M73.0207 85.6872H77.3428V94.133H84.8127V85.6872H89.1179V108.071H84.8127V98.2566H77.3428V108.071H73.0207V85.6872Z" fill="white"/>
<path d="M101.058 85.6872H105.38L113.99 108.071H109.563L107.814 103.462H98.6791L96.8581 108.071H92.4303L101.062 85.6872H101.058ZM103.246 91.6191L100.242 99.3044H106.229L103.242 91.6191H103.246Z" fill="white"/>
<path d="M117.299 85.6872H121.384L130.962 100.416V85.6872H135.221V108.071H131.123L121.557 93.3894V108.071H117.299V85.6872Z" fill="white"/>
</svg>
