<?xml version="1.0" encoding="UTF-8"?>
<svg id="katman_1" data-name="katman 1" xmlns="http://www.w3.org/2000/svg" viewBox="0 0 400 400">
  <path d="m106.11,135.81h10.12v34.26c0,2.95.26,5.04.77,6.26.52,1.22,1.37,2.2,2.56,2.93s2.62,1.1,4.3,1.1c1.78,0,3.31-.41,4.59-1.22,1.28-.82,2.17-1.85,2.67-3.11.49-1.26.74-3.66.74-7.21v-33h10.12v31.58c0,5.33-.3,9.03-.9,11.09-.6,2.07-1.75,4.06-3.44,5.98s-3.64,3.34-5.85,4.27-4.78,1.39-7.71,1.39c-3.84,0-7.18-.88-10.03-2.65s-4.88-3.97-6.1-6.63-1.84-7.14-1.84-13.45v-31.58Z"/>
  <path d="m202.59,144.46l-7.1,7.02c-4.49-4.75-9.73-7.13-15.71-7.13-5.22,0-9.58,1.73-13.1,5.19-3.52,3.46-5.28,7.66-5.28,12.6s1.83,9.45,5.48,13c3.65,3.55,8.16,5.33,13.52,5.33,3.48,0,6.42-.73,8.81-2.2,2.39-1.46,4.32-3.76,5.79-6.88h-15.34v-9.47h26.65l.07,2.23c0,4.63-1.2,9.03-3.6,13.18-2.4,4.15-5.51,7.32-9.33,9.51s-8.3,3.28-13.43,3.28c-5.5,0-10.4-1.2-14.71-3.58-4.31-2.39-7.72-5.79-10.23-10.21-2.51-4.42-3.76-9.18-3.76-14.3,0-7.01,2.32-13.11,6.95-18.29,5.5-6.17,12.65-9.25,21.46-9.25,4.61,0,8.92.85,12.93,2.56,3.39,1.44,6.7,3.91,9.94,7.42Zm-38.75-22.8h7.96c.62.99,1.5,1.72,2.61,2.21,1.12.49,2.48.74,4.09.74s3.11-.29,4.43-.86c.86-.38,1.62-1.08,2.27-2.09h7.96c-.46,3.05-1.92,5.5-4.38,7.35-2.46,1.85-5.9,2.77-10.32,2.77-2.98,0-5.47-.41-7.47-1.24-2-.83-3.62-2.01-4.84-3.55-1.22-1.54-1.99-3.31-2.3-5.33Z"/>
  <path d="m215.27,135.81h10.12v34.26c0,2.95.26,5.04.77,6.26.52,1.22,1.37,2.2,2.56,2.93s2.62,1.1,4.3,1.1c1.78,0,3.31-.41,4.59-1.22,1.28-.82,2.17-1.85,2.67-3.11.49-1.26.74-3.66.74-7.21v-33h10.12v31.58c0,5.33-.3,9.03-.9,11.09-.6,2.07-1.75,4.06-3.44,5.98s-3.64,3.34-5.85,4.27-4.78,1.39-7.71,1.39c-3.84,0-7.18-.88-10.03-2.65s-4.88-3.97-6.1-6.63-1.84-7.14-1.84-13.45v-31.58Z"/>
  <path d="m263.53,135.81h10.68c5.85,0,10.02.52,12.5,1.57,2.48,1.04,4.48,2.78,5.99,5.2,1.51,2.43,2.27,5.29,2.27,8.61,0,3.48-.83,6.39-2.5,8.73-1.67,2.34-4.18,4.11-7.54,5.31l12.55,23.55h-11.02l-11.91-22.44h-.92v22.44h-10.08v-52.98Zm10.08,20.71h3.16c3.21,0,5.42-.42,6.62-1.26,1.21-.84,1.81-2.24,1.81-4.19,0-1.16-.3-2.16-.9-3.02s-1.4-1.47-2.41-1.84c-1-.37-2.85-.56-5.53-.56h-2.76v10.88Z"/>
  <path d="m107.75,210.01l-7.47,6.59c-2.62-3.65-5.29-5.47-8.01-5.47-1.32,0-2.4.35-3.25,1.06s-1.26,1.51-1.26,2.39.3,1.73.9,2.52c.82,1.06,3.28,3.33,7.4,6.81,3.85,3.22,6.18,5.25,7,6.09,2.04,2.06,3.49,4.04,4.35,5.92.85,1.88,1.28,3.94,1.28,6.18,0,4.35-1.5,7.94-4.51,10.77-3,2.83-6.92,4.25-11.75,4.25-3.77,0-7.06-.92-9.86-2.77s-5.2-4.75-7.19-8.72l8.48-5.11c2.55,4.68,5.48,7.02,8.8,7.02,1.73,0,3.19-.5,4.36-1.51,1.18-1.01,1.77-2.17,1.77-3.49,0-1.2-.45-2.4-1.33-3.6-.89-1.2-2.85-3.04-5.88-5.51-5.77-4.71-9.5-8.34-11.18-10.89-1.68-2.56-2.53-5.11-2.53-7.65,0-3.67,1.4-6.82,4.2-9.45,2.8-2.63,6.25-3.94,10.37-3.94,2.64,0,5.16.61,7.55,1.84,2.39,1.22,4.98,3.46,7.77,6.7Zm-17.65,45.2h6.09l-.43,1.66c1.61.36,2.88,1.06,3.8,2.1.92,1.04,1.39,2.18,1.39,3.43,0,1.94-.82,3.6-2.45,4.99-1.63,1.39-3.9,2.08-6.81,2.08-2.35,0-5.02-.55-8-1.66l1.3-4.65c1.73.55,3.42.83,5.08.83,1.22,0,2.14-.23,2.74-.7.6-.47.9-1.09.9-1.86,0-.62-.23-1.12-.68-1.48-.46-.36-1.18-.54-2.16-.54l-2.02.07,1.26-4.29Z"/>
  <path d="m134.46,202.81h10.23l20.38,52.98h-10.48l-4.14-10.91h-21.62l-4.31,10.91h-10.48l20.43-52.98Zm5.18,14.04l-7.11,18.19h14.17l-7.07-18.19Z"/>
  <path d="m172.83,202.81h10.23v19.99h17.68v-19.99h10.19v52.98h-10.19v-23.23h-17.68v23.23h-10.23v-52.98Z"/>
  <path d="m239.19,202.81h10.23l20.38,52.98h-10.48l-4.14-10.91h-21.62l-4.31,10.91h-10.48l20.43-52.98Zm5.18,14.04l-7.11,18.19h14.17l-7.07-18.19Z"/>
  <path d="m277.63,202.81h9.67l22.67,34.86v-34.86h10.08v52.98h-9.7l-22.64-34.75v34.75h-10.08v-52.98Z"/>
</svg>